<svg xmlns="http://www.w3.org/2000/svg" viewBox="0 0 1440 190">
  <path fill="#EBEBEB" fill-rule="evenodd" d="M132.05 156.62c-4.38 1.253-12.361 4.968-13.608 4.968-1.499 0-21.74 4.607-26.237 5.375-2.998.512-5.247 2.048-6.747 4.607-.5 1.536-1.749 2.304-3.748 2.304-2.998 0-7.496-.768-10.495-1.536-2.998-.768-2.249 1.536-3.748 1.536-1.5 0-3.748-2.304-6.747-2.304-2.998 0-5.997 0-7.496 1.536-1.5 1.536-19.49 3.072-20.24 3.072-.5 0-4.248-1.536-11.245-4.608-4.497 3.072-7.996 4.608-10.494 4.608-2.5 0-6.247-1.024-11.245-3.072V190h1439.298v-27.645c1.5 2.56.75-1.535-3.748-3.839-4.498-2.304-2.998 1.536-5.997.768-2.999-.768-8.246-4.608-9.745-5.375-1.5-.768-2.25 2.303-4.498 2.303-2.249 0-2.999-1.536-4.498-1.536-1.5 0-2.998 3.072-5.247 3.84-2.25.768-7.497-2.304-8.996.768-1.5 3.071-11.994 5.375-13.493 5.375-1 0-1.25-1.023-.75-3.071l-2.249-2.304c-.75-.768-2.998 0-5.247.768-2.25.768-7.497-2.304-8.996-2.304-1.5 0-2.249 1.536-5.247 1.536-2.999 0 .75-3.072-2.25-2.304-2.998.768-12.743-.768-16.491-.768-4.546 0-6.748-1.694-10.045-.458-.193.071-2.608.635-2.608.635L1328.18 42.21l.02-8.332-4.909-2.915.039-15.256 1.852-.528-.42-1.389 2.482-1.193.592-1.115-16.67-10.25L1304.505 0l-23.818 7.532.56 1.114 2.521 1.31-.554.685-.02.958 2.218 1.213-.232 16.462-5.15 1.348-1.007 8.33-.895 115.724-52.81-7.79c-1.499.768-7.16.111-10.16-.656-1.999-.513-8.245-.768-18.74-.768l-10.495 3.071-8.246-3.84c-2.999 1.537-5.248 2.304-6.747 2.304-2.249 0-8.246-5.375-10.495-5.375-2.249 0-5.247 3.84-6.746 4.608-1 .512-3.998.255-8.996-.768v-3.84l-15.742.768v-16.126l-26.987-.768v-15.358l2.249-6.143-4.498-.768V90.94l1.5-5.375-102.7 9.215-107.948-29.948-95.204 50.681-66.717 9.215 2.998 3.072c0 3.584-1.249 5.63-3.748 6.143-2.498.512-4.747 2.048-6.747 4.607-2.498-2.559-4.497-3.583-5.997-3.071-2.249.768-18.74 3.071-22.489 3.84-3.748.767-5.997-3.84-8.246-3.072-2.249.768-3.748 1.536-5.247 2.303-1.5.768-8.246-5.375-10.495-5.375-2.249 0-5.424 5.787-7.496 4.608-7.914-4.506-46.996-62.261-161.68-62.261-75.464 0-158.569 46.925-174.906 83.762-2.077 4.684-7.997 1.023-8.996 1.536-1.5.768-.75 1.535-2.249 3.071-1.499 1.536-1.499.768-6.746.768-5.248 0-8.246-5.375-10.495-6.91-2.25-1.537-2.999-1.537-3.749.767-1.25 3.84-9.745 8.447-11.994 9.215-2.249.768-3.748-1.578-5.997-3.072-.344-.228-5.05-.537-12.146-.921l-37.628-8.26c-6.823 0-6.943 2.55-7.116 2.55-1.5 0-23.32 2.792-24.07.488s-11.245-6.143-13.494-4.607c-1.74 1.188-4.828.077-7.177.226v-6.874l9.745 3.072c.052-.013 3.595 1.439 5.248-3.072.527-1.94 1.536-4.815-2.25-6.143l-25.487-7.68v-1.535l16.492-14.59-17.991 8.447-1.226-4.449 2.563.14s7.905-7.309 7.467-7.51c-.545-.252 3.565-14.548 4.315-16.852.5-1.535 2.374-3.838 6.371-7.42l-2.998-.768 5.832-3.599-4.333-.241 7.26-9.948-9.078 5.106 7.815-14.356-12.319 10.445 6.471-14.85-12.143 13.62-.478-19.405c-2.999 10.751-4.52 17.357-5.52 19.405-1.498 3.072-5.996 5.376-7.495 9.215-1 2.56-1.315 7.69-.315 15.882l-5.682 7.923c-9.496-4.607-15.992-8.447-19.491-11.518-5.247-4.608-13.439-17.188-12.744-15.358 1.628 4.288 3.27 9.175 5.248 12.286.788 1.24 2.007 4.24 3.85 5.858.19.168-2.351.285-2.351.285s3.603 5.983 6.602 8.287c2 1.535 4.642 3.232 9.14 4.768-.5.511-1.25 1.791-2.249 3.84-1.499 3.07.4 4.137 1.15 4.904 0 1.527 1.1 2.253 2.599 2.774-1-2.048-.75-3.584.75-4.607l2.248 2.303a5947.08 5947.08 0 0 0 3.748 3.84l-.153 9.996-20.087 10.737c-.616 1.1-.874 2.769-.88 3.916-.005 1.481.298 2.457.873 3.149-.055.028 1.335 1.898 1.171 2.038l7.627 1.023z"/>
</svg>
