<svg xmlns="http://www.w3.org/2000/svg" viewBox="0 0 147 42">
  <path fill="#595959" fill-rule="evenodd" d="M18.033 21.631c.125 0 .454.022.454.506 0 .391-.25 3.027-.529 4.027-.184.676-.503.88-2.383.88-1.954 0-3.474-.04-4.814-.077h-.012L9.64 26.94a93.538 93.538 0 0 0-4.291-.106c-.377 0-1.162 0-2.002.037-.416 0-.86.019-1.287.036h-.01c-.385.016-.783.033-1.127.033-.606 0-.606-.193-.606-.256 0-.057 0-.406.463-.406a5.88 5.88 0 0 0 1.286-.143c.776-.155.956-1.007 1.097-2.02.17-1.482.17-4.059.17-7.295v-6.2c0-5.375 0-6.073-.066-7.205-.07-1.179-.334-1.827-1.583-2.095-.277-.07-.697-.107-1.183-.107C.039 1.212 0 .827 0 .72 0 .606.052.495.678.495c.938 0 2.047.033 3.025.063C4.409.58 5.076.6 5.492.6 5.858.6 6.536.58 7.32.558l.037-.001a116.87 116.87 0 0 1 2.912-.062c.595 0 .646.116.646.224 0 .112-.042.493-.54.493-.371 0-.945.033-1.388.105-1.064.197-1.31.918-1.376 2.097-.071 1.132-.071 1.83-.071 7.205v6.2c0 4.65 0 6.984.77 7.646.586.517 1.446.797 4.31.797 1.74 0 3.243 0 4.183-1.018.425-.46.862-1.472.937-2.167.04-.377.13-.446.293-.446zm13.483 4.668c.358 0 .47.214.47.384 0 .231-.401.256-.574.256-1.411 0-2.767-.04-3.86-.07a66.12 66.12 0 0 0-1.619-.036c-.353 0-.984.02-1.652.042l-.023.001c-.918.03-1.959.063-2.751.063-.61 0-.61-.193-.61-.256 0-.052 0-.384.47-.384.428 0 .848-.046 1.281-.143.77-.153.99-.818 1.095-1.84.177-1.486.177-4.03.177-7.497v-6.2c0-5.375 0-6.175-.07-7.306-.075-1.26-.454-1.875-1.265-2.06-.347-.094-.78-.143-1.287-.143-.434 0-.47-.292-.47-.429 0-.125.245-.186.749-.186.712 0 1.657.03 2.573.057l.015.001C24.94.577 25.671.6 26.143.6c.402 0 1.077-.022 1.73-.044a84.18 84.18 0 0 1 2.557-.06c.427 0 .643.062.643.186 0 .137-.035.43-.468.43-.367 0-.66.036-1.07.105-1.062.195-1.309.917-1.376 2.096-.072 1.132-.072 1.932-.072 7.307v6.2c0 3.466 0 6.01.143 7.53.111 1.01.398 1.664 1.484 1.809.5.07 1.278.141 1.802.141zm16.347-14.36c4.666 1.603 6.329 4.936 6.329 7.522a7.055 7.055 0 0 1-2.236 5.183c-1.666 1.57-4.103 2.4-7.048 2.4-.232 0-.667-.022-1.128-.045l-.035-.002c-.397-.02-.847-.042-1.293-.058a47.135 47.135 0 0 0-2.639-.106c-.378 0-1.164 0-2.002.037-.417 0-.86.019-1.29.036h-.01c-.384.016-.78.033-1.126.033-.606 0-.606-.193-.606-.256 0-.057 0-.426.466-.426a5.88 5.88 0 0 0 1.285-.142c.772-.155.951-1.006 1.093-2.02.178-1.482.178-4.04.178-7.276v-6.2c0-5.375 0-6.09-.074-7.222-.065-1.178-.327-1.826-1.58-2.096-.298-.073-.915-.107-1.393-.107-.465 0-.504-.367-.504-.475 0-.113.053-.224.681-.224 1.149 0 2.456.04 3.417.07h.01c.604.02 1.08.034 1.348.034.95 0 1.793-.031 2.542-.06.62-.022 1.206-.044 1.746-.044 6.852 0 7.385 3.971 7.385 5.188 0 2.693-1.417 4.384-3.544 6.093l-.134.108.162.055zm-6.036-9.424v8.703c0 .356.17.442.318.479.328.072.874.108 1.671.108 1.088 0 1.945-.118 2.591-.691.966-.786 1.477-2.102 1.477-3.807 0-1.295-.404-2.667-1.08-3.671-.58-.86-1.642-1.886-3.41-1.886-.49 0-.816 0-1.183.074-.323.09-.384.313-.384.691zm6.663 22.233c1.04-.804 1.568-2.05 1.568-3.7 0-1.406-.335-4.912-3.445-7.09-.767-.551-1.598-.792-2.964-.862-.634-.037-.986-.037-1.519-.037-.138 0-.303.06-.303.341v8.35c0 2.387.119 2.994 1.288 3.472.965.393 1.78.425 2.6.425.484 0 1.726-.087 2.775-.899zm24.049-2.972c.162 0 .187.121.187.54 0 .794-.282 3.19-.456 3.883-.228.845-.47.845-1.804.845-2.14 0-3.815-.045-5.161-.081-.322-.01-.625-.017-.912-.024a80.186 80.186 0 0 0-3.657-.106c-.378 0-1.164 0-2.004.037-.423 0-.869.019-1.3.036-.404.017-.786.033-1.124.033-.609 0-.609-.193-.609-.256 0-.052 0-.45.468-.45.565 0 1.005-.08 1.286-.142.774-.155.952-1.006 1.09-2.02.179-1.481.179-4.016.179-7.252v-6.2c0-5.375-.17-6.173-.245-7.304-.065-1.179-.327-1.826-1.578-2.096-.298-.074-.916-.107-1.396-.107-.464 0-.332-.285-.332-.393 0-.113.052-.224.681-.224.487 0 .99.01 1.476.018.48.01.933.018 1.363.018h.002l.208.008c.833.032 1.551.06 2.008.06C63.351.6 69.094.596 69.7.566c.756-.081 1.27-.153 1.525-.213.071-.016.15-.042.22-.065.111-.038.227-.077.322-.077.051 0 .115 0 .115.225 0 .072-.02.173-.046.314-.06.325-.163.869-.235 1.964-.013.133-.03.421-.05.755-.036.58-.08 1.302-.123 1.564-.048.226-.119.31-.26.31-.12 0-.393-.03-.393-.4 0-.286-.047-.882-.218-1.3-.242-.616-.575-1.105-2.433-1.327-.61-.072-4.145-.14-4.826-.14-.338 0-.338.334-.338.444v8.912c0 .18 0 .483.338.483 1.8 0 4.926-.01 5.629-.071.877-.072 1.415-.183 1.75-.56l.064-.074c.193-.219.309-.351.427-.351.074 0 .153.014.153.185 0 .065-.016.174-.043.357a31.468 31.468 0 0 0-.24 2.213c-.015.308-.044.747-.072 1.172l-.002.04a33.766 33.766 0 0 0-.066 1.152c0 .373-.035.575-.221.575-.163 0-.224-.061-.224-.229a8.551 8.551 0 0 1-.022-.303c-.019-.3-.04-.638-.12-.982-.214-.856-.864-1.315-2.049-1.445-.69-.071-4.211-.106-5-.106-.302 0-.302.313-.302.447v2.784c0 .344-.004.856-.007 1.436v.021c-.009 1.461-.019 3.28.007 4.008.072 2.566.757 3.05 4.311 3.05.9 0 2.144 0 3.074-.433.924-.427 1.382-1.176 1.635-2.675.075-.412.405-.45.559-.45zm29.326 4.481c.22 0 .33.3.33.426 0 .13-.044.257-.574.257h-3.337c-1.888 0-2.791-.16-3.715-.66-1.452-.778-2.749-2.345-4.78-5.15-.601-.826-1.244-1.744-1.813-2.555l-.008-.012c-.75-1.071-1.399-1.996-1.661-2.301-.196-.23-.424-.278-.705-.278l-3.055-.07c-.246 0-.377.13-.377.374v.495c0 3.255 0 5.85.177 7.331.102.977.289 1.867 1.452 2.022.52.068 1.303.142 1.732.142.326 0 .327.24.327.405 0 .063 0 .257-.61.257-1.346 0-2.953-.047-4.018-.078a57.943 57.943 0 0 0-1.145-.029c-.277 0-.837.019-1.433.039-.9.03-2.02.067-2.85.067-.609 0-.609-.193-.609-.256 0-.057 0-.449.469-.449.565 0 1.003-.081 1.283-.142.776-.156.953-1.007 1.092-2.02.177-1.482.177-4.017.177-7.253v-6.2c0-5.375 0-6.198-.072-7.329-.067-1.18-.33-1.827-1.581-2.096-.3-.074-.916-.106-1.393-.106-.464 0-.503-.262-.503-.369 0-.113.052-.224.678-.224 1.152 0 2.4.038 3.402.07.602.019 1.122.034 1.412.034.607 0 1.604-.027 2.568-.053l.053-.002c.93-.025 1.808-.049 2.331-.049 2.093 0 4.493.178 6.415 1.498.81.553 2.344 2.257 2.344 4.75 0 2.852-1.375 5.19-4.6 7.818l-.072.06.058.072.965 1.221.227.288c2.587 3.275 4.63 5.624 6.435 7.528 1.94 2.012 3.395 2.303 3.943 2.413l.043.008c.405.072.722.106.998.106zM87.8 13.865c.79-.58 2.115-2.046 2.115-5.363 0-5.162-3.44-6.538-5.472-6.538-.995 0-1.56.042-1.887.142-.338.1-.385.34-.385.583V13.4c0 .431.09.6.383.724.674.226 1.682.36 2.695.36 1.452 0 1.91-.155 2.551-.62zM146.461.495c.358 0 .539.062.539.186 0 .235-.4.26-.573.26-.38 0-1.065.15-1.586.43-.757.364-1.15.791-1.93 1.752-1.18 1.434-6.112 9.76-6.726 11.23-.535 1.283-.535 2.389-.535 3.559V20.8c0 .56 0 1.791.11 3.27.057.857.28 1.862 1.516 2.027.501.07 1.271.141 1.772.141.4 0 .465.28.465.444 0 .213-.349.257-.642.257-1.344 0-2.667-.039-3.73-.07l-.039-.001a65.6 65.6 0 0 0-1.603-.036c-.404 0-1.116.023-1.804.046h-.014c-.875.029-1.868.061-2.575.061-.626 0-.68-.127-.68-.257 0-.17.075-.444.471-.444.404 0 .812-.047 1.247-.142.677-.137 1.08-.837 1.165-2.025.104-1.48.104-2.712.104-3.271v-2.89c0-1.915-.36-2.718-.815-3.735-.267-.618-5.012-8.409-6.191-10.166-.573-.849-1.188-1.572-1.778-2.09-.316-.246-.916-.658-1.383-.658-.273 0-.604.14-.627.813-.008.3-.077 2.474-.076 2.896-.045.44-.136.477-.225.477-.176 0-.427-.056-.464-.618l-.036-.384c-.055-.736-.679-1.982-4.236-2.06l-4.348-.108v14.54c0 3.237 0 5.737.174 7.254.098.92.29 1.831 1.45 1.987.5.07 1.283.14 1.809.14.463 0 .467.314.467.484 0 .232-.4.257-.572.257-1.407 0-2.761-.039-3.85-.07h-.02a66.153 66.153 0 0 0-1.647-.037c-.352 0-.956.02-1.655.043h-.02c-.919.03-1.962.064-2.754.064-.605 0-.605-.194-.605-.257 0-.057 0-.483.464-.483.568 0 1.005-.081 1.284-.143.802-.16 1-1.066 1.095-2.02.177-1.482.177-3.982.177-7.218V2.278l-5.022.143c-1.99.067-2.915.23-3.484 1.062-.412.624-.558 1.059-.608 1.263-.079.326-.5.353-.608.353-.125 0-.221-.035-.221-.472 0-.539.653-3.686.735-4.03.098-.43.19-.597.328-.597.088 0 .2.05.344.113.255.112.603.266 1.157.308 1.03.11 2.38.178 3.525.178h13.911c.245 0 .46-.005.66-.012l.059-.001.009-.001.04-.001h.022l.015-.004c1.806-.005 8.375-.02 8.402-.022h.002c.701-.03 1.56-.063 2.46-.063.43 0 .43.162.43.224 0 .102-.128.145-.524.248l-.173.046a.733.733 0 0 0-.57.727c0 .258.13.63.434 1.238.392.84 3.46 6.167 5.108 9.028l.147.256c.356.618.615 1.07.72 1.255l.095.167.074-.177c.176-.421 1.402-2.627 2.589-4.76 1.195-2.151 2.431-4.375 2.679-4.924.332-.735.501-1.365.501-1.873 0-.512-.28-.849-.81-.973-.25-.055-.561-.124-.561-.258 0-.132.037-.224.503-.224.601 0 1.188.028 1.756.055.54.025 1.05.05 1.55.05.407 0 1.222-.028 2.01-.056l.04-.001a69.575 69.575 0 0 1 1.706-.048zM3.591 37.868c0 1.762.351 2.504.945 2.99.545.45 1.102.498 1.514.498.533 0 1.188-.17 1.673-.656.666-.669.702-1.762.702-3.014v-1.519c0-1.847 0-2.187-.024-2.576-.024-.413-.121-.607-.521-.693a2.332 2.332 0 0 0-.436-.036c-.133 0-.206-.024-.206-.11 0-.084.085-.109.254-.109.618 0 1.381.037 1.394.037.145 0 .909-.037 1.381-.037.17 0 .255.025.255.11 0 .085-.073.109-.219.109-.133 0-.206.012-.351.036-.327.061-.424.268-.449.693-.023.389-.023.73-.023 2.576v1.3c0 1.35-.134 2.783-1.152 3.658-.86.742-1.732.875-2.52.875-.642 0-1.805-.036-2.69-.838-.618-.56-1.078-1.459-1.078-3.22v-1.775c0-1.847 0-2.187-.025-2.576-.024-.413-.12-.607-.52-.693a2.474 2.474 0 0 0-.473-.036c-.133 0-.206-.024-.206-.11 0-.084.085-.109.267-.109.642 0 1.405.037 1.768.037.291 0 1.055-.037 1.491-.037.182 0 .266.025.266.11 0 .085-.072.109-.194.109-.133 0-.205.012-.35.036-.328.061-.425.268-.45.693-.023.389-.023.73-.023 2.576v1.701zm14.957-5.018c0-.243.037-.413.158-.413.133 0 .242.157.448.376.146.159 1.987 2.14 3.756 3.901.824.826 2.52 2.637 2.727 2.831l-.121-5.516c-.013-.742-.122-.973-.413-1.094-.181-.073-.472-.073-.642-.073-.145 0-.193-.036-.193-.11 0-.096.133-.109.315-.109.63 0 1.211.037 1.465.037.134 0 .594-.037 1.188-.037.157 0 .279.013.279.11 0 .073-.073.109-.219.109-.12 0-.218 0-.363.036-.34.098-.436.353-.448 1.033-.049 2.564-.085 5.104-.134 7.668 0 .268-.048.377-.157.377-.134 0-.279-.134-.412-.268-.763-.729-2.314-2.32-3.575-3.572-1.32-1.313-2.701-2.868-2.92-3.1l.134 5.141c.024.948.181 1.264.424 1.35.206.072.436.084.63.084.133 0 .206.024.206.097 0 .097-.11.122-.279.122-.787 0-1.272-.037-1.502-.037-.11 0-.679.037-1.309.037-.157 0-.267-.012-.267-.122 0-.073.073-.097.194-.097.158 0 .376-.012.546-.06.315-.098.363-.45.375-1.508.037-2.575.085-5.577.11-7.193zm17.405 3.317c0-1.847 0-2.187-.024-2.576-.024-.413-.145-.62-.412-.68a1.72 1.72 0 0 0-.436-.05c-.121 0-.194-.023-.194-.12 0-.073.097-.098.29-.098.461 0 1.225.037 1.576.037.303 0 1.018-.037 1.478-.037.158 0 .255.025.255.097 0 .098-.073.122-.194.122-.121 0-.218.012-.364.036-.327.061-.423.268-.448.693-.024.389-.024.73-.024 2.576v2.139c0 1.179 0 2.138.049 2.661.036.328.12.547.484.595.17.025.436.049.618.049.133 0 .194.037.194.097 0 .085-.097.122-.23.122-.8 0-1.564-.037-1.89-.037-.28 0-1.043.037-1.527.037-.158 0-.243-.037-.243-.122 0-.06.049-.097.194-.097.182 0 .327-.024.437-.049.242-.048.315-.255.35-.607.061-.51.061-1.47.061-2.65v-2.138zm10.858-2.333c-.278-.668-.484-.802-.92-.924-.183-.048-.376-.048-.473-.048-.11 0-.146-.036-.146-.11 0-.096.134-.109.315-.109.643 0 1.333.037 1.757.037.303 0 .885-.037 1.49-.037.146 0 .28.025.28.11 0 .085-.073.109-.182.109-.194 0-.376.012-.473.085-.085.06-.12.146-.12.255 0 .158.108.499.278.936.666 1.75 1.478 3.9 2.108 5.577.52-1.336 2.12-5.31 2.411-6.112a1.5 1.5 0 0 0 .11-.45c0-.097-.05-.194-.158-.23a1.606 1.606 0 0 0-.485-.061c-.11 0-.206-.012-.206-.097 0-.097.11-.122.34-.122.605 0 1.114.037 1.272.037.206 0 .775-.037 1.138-.037.158 0 .255.025.255.11 0 .085-.073.109-.194.109-.121 0-.376 0-.594.145-.157.11-.339.316-.666 1.094-.473 1.143-.8 1.8-1.454 3.293-.775 1.775-1.345 3.1-1.612 3.707-.314.704-.387.899-.557.899-.157 0-.23-.17-.46-.741l-3.054-7.425zm16.383 2.333c0-1.847 0-2.187-.024-2.576-.024-.413-.121-.607-.52-.693a2.481 2.481 0 0 0-.473-.036c-.133 0-.206-.024-.206-.11 0-.084.085-.109.266-.109.558 0 1.115.037 1.745.037.388 0 3.158 0 3.389-.012.23-.025.423-.05.52-.074.061-.012.134-.048.194-.048.061 0 .073.048.073.11 0 .084-.06.23-.097.79-.012.12-.036.655-.06.801-.013.06-.037.134-.122.134-.085 0-.109-.073-.109-.219 0-.048-.012-.243-.072-.388-.085-.22-.206-.365-.812-.438-.206-.025-1.838-.049-2.08-.049-.06 0-.085.036-.085.122v3.074c0 .085.012.134.085.134.266 0 2.02 0 2.298-.025.29-.024.472-.06.582-.182.084-.097.133-.158.193-.158.049 0 .085.024.085.097 0 .074-.049.268-.097.887-.012.244-.048.73-.048.815 0 .097 0 .23-.11.23-.084 0-.109-.133-.109-.194-.012-.121-.012-.194-.048-.352-.06-.243-.23-.426-.679-.474-.23-.025-1.788-.037-2.079-.037-.06 0-.073.049-.073.122v.96c0 .413-.012 1.531 0 1.883.024.839.577 1.021 1.813 1.021.316 0 .824 0 1.14-.146.314-.145.46-.4.545-.9.024-.133.048-.18.133-.18.097 0 .097.096.097.218 0 .279-.097 1.105-.158 1.349-.085.316-.194.316-.654.316-1.079 0-2.504-.074-3.715-.074-.485 0-.982.037-1.527.037-.158 0-.242-.037-.242-.122 0-.06.048-.097.193-.097.182 0 .328-.024.436-.049.243-.048.304-.315.352-.668.06-.51.06-1.47.06-2.588v-2.139zm14.655 0c0-1.847 0-2.187-.024-2.576-.025-.413-.121-.607-.521-.693a2.481 2.481 0 0 0-.473-.036c-.133 0-.206-.024-.206-.11 0-.084.085-.109.267-.109.642 0 1.405.037 1.66.037.412 0 1.333-.037 1.708-.037.764 0 1.575.073 2.23.523.34.23.824.85.824 1.665 0 .899-.364 1.713-1.588 2.71 1.079 1.36 1.915 2.454 2.63 3.207.678.705 1.163.79 1.345.827.133.024.242.036.339.036.097 0 .145.037.145.097 0 .097-.084.122-.23.122h-1.187c-.679 0-.982-.06-1.297-.231-.52-.28-.981-.85-1.66-1.786-.484-.669-1.042-1.495-1.2-1.677-.06-.073-.133-.085-.217-.085l-1.018-.025c-.06 0-.097.025-.097.098v.17c0 1.13 0 2.09.06 2.6.037.353.11.62.473.668.182.025.448.049.594.049.097 0 .145.037.145.097 0 .085-.085.122-.242.122-.703 0-1.6-.037-1.781-.037-.23 0-.994.037-1.479.037-.157 0-.242-.037-.242-.122 0-.06.049-.097.194-.097.182 0 .327-.024.436-.049.242-.048.303-.315.352-.668.06-.51.06-1.47.06-2.588v-2.139zm1.43.96c0 .134.024.182.109.22.255.084.618.12.92.12.485 0 .643-.048.861-.206.363-.268.715-.826.715-1.823 0-1.725-1.139-2.224-1.854-2.224-.303 0-.521.012-.642.05-.085.023-.11.072-.11.17v3.693zm13.79 4.557c-.194-.085-.23-.146-.23-.413 0-.668.048-1.398.06-1.592.013-.182.05-.316.146-.316.11 0 .121.11.121.207 0 .157.049.413.11.62.266.899.98 1.227 1.732 1.227 1.09 0 1.623-.742 1.623-1.386 0-.595-.182-1.154-1.187-1.944l-.558-.437c-1.332-1.045-1.793-1.896-1.793-2.88 0-1.337 1.115-2.297 2.8-2.297a6.525 6.525 0 0 1 1.61.207c.11.024.17.06.17.146 0 .158-.048.51-.048 1.458 0 .267-.036.364-.133.364-.085 0-.122-.073-.122-.218 0-.11-.06-.487-.315-.803-.181-.23-.533-.595-1.32-.595-.897 0-1.442.523-1.442 1.252 0 .559.278.984 1.284 1.75l.34.255c1.466 1.105 1.987 1.944 1.987 3.098 0 .705-.267 1.544-1.14 2.115-.605.389-1.284.498-1.926.498-.703 0-1.248-.085-1.769-.316zm13.948-5.517c0-1.847 0-2.187-.025-2.576-.024-.413-.145-.62-.412-.68a1.719 1.719 0 0 0-.436-.05c-.12 0-.194-.023-.194-.12 0-.073.097-.098.291-.098.46 0 1.224.037 1.575.037.303 0 1.018-.037 1.479-.037.157 0 .254.025.254.097 0 .098-.073.122-.194.122-.121 0-.218.012-.364.036-.327.061-.423.268-.448.693-.024.389-.024.73-.024 2.576v2.139c0 1.179 0 2.138.049 2.661.036.328.12.547.484.596.17.024.437.048.618.048.133 0 .194.037.194.097 0 .085-.097.122-.23.122-.8 0-1.563-.037-1.89-.037-.279 0-1.043.037-1.527.037-.158 0-.242-.037-.242-.122 0-.06.048-.097.194-.097.181 0 .327-.024.436-.048.242-.05.315-.256.351-.608.06-.51.06-1.47.06-2.65v-2.138zm14.94 2.139c0 1.118 0 2.078.062 2.6.036.34.108.608.472.657.17.024.436.048.618.048.133 0 .194.037.194.097 0 .085-.097.122-.23.122-.8 0-1.563-.037-1.902-.037-.28 0-1.043.037-1.528.037-.157 0-.242-.037-.242-.122 0-.06.049-.097.194-.097.182 0 .327-.024.436-.048.243-.05.315-.316.352-.669.06-.51.06-1.47.06-2.588v-4.983c-.46.013-1.211.037-1.805.05-.703.024-.994.084-1.175.352a1.444 1.444 0 0 0-.206.425c-.025.097-.06.146-.133.146-.086 0-.11-.06-.11-.195 0-.194.23-1.3.255-1.397.036-.158.072-.231.145-.231.097 0 .218.121.521.146.351.037.812.06 1.212.06h4.798c.388 0 .654-.036.836-.06.182-.037.279-.06.327-.06.085 0 .097.072.097.254 0 .256-.036 1.094-.036 1.41-.012.122-.037.194-.11.194-.096 0-.12-.06-.133-.243 0-.036-.012-.097-.012-.133-.024-.316-.35-.656-1.43-.68a77.754 77.754 0 0 0-1.526-.038v4.983zm13.65.376c0-.656-.122-.923-.28-1.276-.084-.194-1.708-2.867-2.132-3.499-.303-.45-.605-.753-.836-.887-.157-.085-.363-.158-.508-.158-.098 0-.182-.024-.182-.11 0-.072.084-.109.23-.109.218 0 1.127.037 1.527.037.254 0 .75-.037 1.296-.037.121 0 .182.037.182.11 0 .073-.085.085-.267.133a.22.22 0 0 0-.17.219c0 .097.061.243.146.413.17.365 1.866 3.293 2.06 3.634.12-.292 1.648-2.966 1.817-3.342.121-.268.17-.474.17-.632 0-.122-.049-.255-.255-.304-.109-.024-.217-.048-.217-.121 0-.085.06-.11.205-.11.4 0 .788.037 1.14.037.266 0 1.066-.037 1.296-.037.133 0 .218.025.218.097 0 .086-.097.122-.23.122a1.31 1.31 0 0 0-.533.145c-.255.122-.388.268-.655.596-.4.486-2.096 3.342-2.314 3.865-.182.437-.182.814-.182 1.214v.997c0 .194 0 .705.036 1.215.025.353.134.62.497.669.17.024.436.048.606.048.133 0 .194.037.194.097 0 .085-.097.122-.254.122-.764 0-1.527-.037-1.854-.037-.303 0-1.067.037-1.515.037-.17 0-.266-.025-.266-.122 0-.06.06-.097.193-.097.17 0 .315-.024.425-.048.242-.05.35-.316.375-.669.036-.51.036-1.02.036-1.215v-.997z"/>
</svg>
